<svg width="14" height="8" viewBox="0 0 14 8" fill="none" xmlns="http://www.w3.org/2000/svg">
<path d="M9.12018 6.2958L13.7102 1.7058C13.8964 1.51844 14.001 1.26498 14.001 1.0008C14.001 0.736612 13.8964 0.483161 13.7102 0.295798C13.6172 0.20207 13.5066 0.127676 13.3848 0.0769071C13.2629 0.0261384 13.1322 -3.79756e-08 13.0002 -4.3746e-08C12.8682 -4.95165e-08 12.7375 0.0261384 12.6156 0.0769071C12.4937 0.127676 12.3831 0.20207 12.2902 0.295798L7.71018 4.8958C7.61722 4.98953 7.50662 5.06392 7.38476 5.11469C7.2629 5.16546 7.13219 5.1916 7.00018 5.1916C6.86817 5.1916 6.73747 5.16546 6.61561 5.11469C6.49375 5.06392 6.38315 4.98953 6.29018 4.8958L1.71018 0.295798C1.5232 0.107494 1.26908 0.00117936 1.00372 0.000241665C0.738355 -0.000696028 0.483486 0.103821 0.295182 0.290799C0.106879 0.477776 0.000562636 0.731898 -0.000374838 0.997262C-0.00131231 1.26263 0.103206 1.51749 0.290183 1.7058L4.88018 6.2958C5.44268 6.8576 6.20518 7.17316 7.00018 7.17316C7.79519 7.17316 8.55768 6.8576 9.12018 6.2958Z" fill="black"/>
</svg>
